<svg width="321" height="321" viewBox="0 0 321 321" fill="none" xmlns="http://www.w3.org/2000/svg">
<path d="M160.5 315.555C246.104 315.555 315.5 246.16 315.5 160.555C315.5 74.9513 246.104 5.55542 160.5 5.55542C74.8959 5.55542 5.5 74.9513 5.5 160.555C5.5 246.16 74.8959 315.555 160.5 315.555Z" fill="black" stroke="#FF8101" stroke-width="10"/>
<path fill-rule="evenodd" clip-rule="evenodd" d="M120.254 57.1801L158.543 9L162.457 12.1108L124.168 60.2909C110.461 77.5388 103 98.9206 103 120.952V177.931C103 194.632 107.29 211.052 115.458 225.619L162.681 309.833L158.319 312.278L111.097 228.064C102.51 212.751 98 195.488 98 177.931V120.952C98 97.7908 105.844 75.3125 120.254 57.1801Z" fill="#FF8101" stroke="#FF8101" stroke-width="6"/>
<path fill-rule="evenodd" clip-rule="evenodd" d="M74.254 56.1801L112.543 8L116.457 11.1108L78.1684 59.2909C64.4615 76.5388 57 97.9206 57 119.952V176.931C57 193.632 61.2897 210.052 69.4578 224.619L116.681 308.833L112.319 311.278L65.0966 227.064C56.5096 211.751 52 194.488 52 176.931V119.952C52 96.7908 59.8441 74.3125 74.254 56.1801Z" fill="#FF8101" stroke="#FF8101" stroke-width="6"/>
<path fill-rule="evenodd" clip-rule="evenodd" d="M203.123 57.1535L162.393 9.92273L158.607 13.1881L199.337 60.4188C214.602 78.1207 223 100.718 223 124.093V176.7C223 194.577 218.085 212.11 208.792 227.382L158.364 310.256L162.636 312.855L213.063 229.981C222.833 213.926 228 195.494 228 176.7V124.093C228 99.5191 219.172 75.7632 203.123 57.1535Z" fill="#FF8101" stroke="#FF8101" stroke-width="6"/>
<path fill-rule="evenodd" clip-rule="evenodd" d="M249.759 57.2307L209.029 10L205.242 13.2653L245.972 60.4961C261.238 78.198 269.636 100.795 269.636 124.17V176.777C269.636 194.654 264.721 212.187 255.428 227.459L205 310.333L209.271 312.932L259.699 230.059C269.469 214.003 274.636 195.571 274.636 176.777V124.17C274.636 99.5964 265.807 75.8404 249.759 57.2307Z" fill="#FF8101" stroke="#FF8101" stroke-width="6"/>
<path d="M39.5 67.0554L69.7433 84.5796C84.9774 93.4068 102.272 98.0554 119.879 98.0554H163.5L207.151 97.4228C223.787 97.1817 240.1 92.7936 254.612 84.6561L286 67.0554" stroke="#FF8101" stroke-width="10"/>
<path d="M21 222L60.3627 242.079C74.4344 249.258 90.0065 253 105.803 253H161.852L217.564 252.289C232.485 252.099 247.174 248.572 260.554 241.966L301 222" stroke="#FF8101" stroke-width="10"/>
<path d="M224.623 154.122C224.756 152.144 224.997 149.448 225.478 146.275C226.424 140.029 227.487 137.256 227.044 137.014C226.014 136.454 221.786 152.299 209.527 164.48C205.763 168.221 195.689 178.233 180.902 181.117C175.907 182.091 170.565 182.216 170.364 183.942C170.048 186.635 182.627 189.902 182.326 191.318C182.107 192.347 175.125 192.334 167.8 190.062C162.937 188.555 160.019 186.7 152.419 184.726C150.008 184.101 146.59 183.324 143.874 185.354C143.317 185.77 142.007 186.751 141.881 188.18C141.508 192.366 151.585 197.242 152.704 195.713C153.442 194.704 150.527 190.563 147.862 188.18C146.991 187.401 144.361 185.105 140.456 184.413C138.087 183.993 137.39 184.543 133.335 184.726C129.748 184.89 127.055 184.606 125.218 184.413C120.157 183.88 113.461 183.175 112.828 180.175C112.524 178.741 113.723 177.325 113.966 177.036C115.437 175.3 117.718 175.378 120.376 175.467C122.846 175.551 124.304 176.183 124.791 176.409C125.55 176.762 127.594 177.715 127.496 178.449C127.346 179.584 122.129 179.87 118.097 179.547C112.344 179.088 102.221 176.849 102.004 173.269C101.78 169.567 112.253 166.008 117.67 164.167C138.658 157.035 144.272 162.992 155.979 156.162C167.607 149.378 173.464 136.854 175.917 138.584C177.661 139.814 174.186 145.773 177.199 151.768C178.848 155.049 181.589 156.647 185.174 158.675C190.202 161.516 192.59 161.376 198.561 163.383C199.743 163.78 207.095 166.298 214.796 171.23C222.451 176.131 227.046 181.237 227.899 180.333C228.567 179.623 225.755 176.465 224.623 170.445C224.011 167.19 224.128 164.368 224.339 162.44" stroke="#FF8101" stroke-width="5" stroke-miterlimit="10"/>
<path d="M9 137C50 171.5 86 168.667 102 171.5" stroke="#FF8101" stroke-width="10"/>
<path d="M317 134C274 171.5 242 169.833 226 171.5" stroke="#FF8101" stroke-width="10"/>
</svg>
