<svg width="300" height="150" viewBox="0 0 450 519" fill="none" xmlns="http://www.w3.org/2000/svg">
<path fill-rule="evenodd" clip-rule="evenodd" d="M419 346H19V338H419V346Z" fill="black"/>
<path fill-rule="evenodd" clip-rule="evenodd" d="M419 376H19V368H419V376Z" fill="black"/>
<path d="M216.5 315.555C302.104 315.555 371.5 246.16 371.5 160.555C371.5 74.9513 302.104 5.55542 216.5 5.55542C130.896 5.55542 61.5 74.9513 61.5 160.555C61.5 246.16 130.896 315.555 216.5 315.555Z" fill="white" stroke="#FF8101" stroke-width="10"/>
<path fill-rule="evenodd" clip-rule="evenodd" d="M176.254 57.1801L214.543 9L218.457 12.1108L180.168 60.2909C166.461 77.5388 159 98.9206 159 120.952V177.931C159 194.632 163.29 211.052 171.458 225.619L218.681 309.833L214.319 312.278L167.097 228.064C158.51 212.751 154 195.488 154 177.931V120.952C154 97.7908 161.844 75.3125 176.254 57.1801Z" fill="#FF8101" stroke="#FF8101" stroke-width="2"/>
<path fill-rule="evenodd" clip-rule="evenodd" d="M130.254 56.1801L168.543 8L172.457 11.1108L134.168 59.2909C120.461 76.5388 113 97.9206 113 119.952V176.931C113 193.632 117.29 210.052 125.458 224.619L172.681 308.833L168.319 311.278L121.097 227.064C112.51 211.751 108 194.488 108 176.931V119.952C108 96.7908 115.844 74.3125 130.254 56.1801Z" fill="#FF8101" stroke="#FF8101" stroke-width="2"/>
<path fill-rule="evenodd" clip-rule="evenodd" d="M259.123 57.1535L218.393 9.92273L214.607 13.1881L255.337 60.4188C270.602 78.1207 279 100.718 279 124.093V176.7C279 194.577 274.085 212.11 264.792 227.382L214.364 310.256L218.636 312.855L269.063 229.981C278.833 213.926 284 195.494 284 176.7V124.093C284 99.5191 275.172 75.7632 259.123 57.1535Z" fill="#FF8101" stroke="#FF8101" stroke-width="2"/>
<path fill-rule="evenodd" clip-rule="evenodd" d="M305.759 57.2307L265.029 10L261.242 13.2653L301.972 60.4961C317.238 78.198 325.636 100.795 325.636 124.17V176.777C325.636 194.654 320.721 212.187 311.428 227.459L261 310.333L265.271 312.932L315.699 230.059C325.469 214.003 330.636 195.571 330.636 176.777V124.17C330.636 99.5964 321.807 75.8404 305.759 57.2307Z" fill="#FF8101" stroke="#FF8101" stroke-width="2"/>
<path d="M95.5 67.0554L125.743 84.5796C140.977 93.4068 158.272 98.0554 175.879 98.0554H219.5L263.151 97.4228C279.787 97.1817 296.1 92.7936 310.612 84.6561L342 67.0554" stroke="#FF8101" stroke-width="6"/>
<path d="M77 222L116.363 242.079C130.434 249.258 146.007 253 161.803 253H217.852L273.564 252.289C288.485 252.099 303.174 248.572 316.554 241.966L357 222" stroke="#FF8101" stroke-width="5"/>
<path d="M280.623 154.122C280.756 152.144 280.997 149.448 281.478 146.275C282.424 140.029 283.487 137.256 283.044 137.014C282.014 136.454 277.786 152.299 265.527 164.48C261.763 168.221 251.689 178.233 236.902 181.117C231.907 182.091 226.565 182.216 226.364 183.942C226.048 186.635 238.627 189.902 238.326 191.318C238.107 192.347 231.125 192.334 223.8 190.062C218.937 188.555 216.019 186.7 208.419 184.726C206.008 184.101 202.59 183.324 199.874 185.354C199.317 185.77 198.007 186.751 197.881 188.18C197.508 192.366 207.585 197.242 208.704 195.713C209.442 194.704 206.527 190.563 203.862 188.18C202.991 187.401 200.361 185.105 196.456 184.413C194.087 183.993 193.39 184.543 189.335 184.726C185.748 184.89 183.055 184.606 181.218 184.413C176.157 183.88 169.461 183.175 168.828 180.175C168.524 178.741 169.723 177.325 169.966 177.036C171.437 175.3 173.718 175.378 176.376 175.467C178.846 175.551 180.304 176.183 180.791 176.409C181.55 176.762 183.594 177.715 183.496 178.449C183.346 179.584 178.129 179.87 174.097 179.547C168.344 179.088 158.221 176.849 158.004 173.269C157.78 169.567 168.253 166.008 173.67 164.167C194.658 157.035 200.272 162.992 211.979 156.162C223.607 149.378 229.464 136.854 231.917 138.584C233.661 139.814 230.186 145.773 233.199 151.768C234.848 155.049 237.589 156.647 241.174 158.675C246.202 161.516 248.59 161.376 254.561 163.383C255.743 163.78 263.095 166.298 270.796 171.23C278.451 176.131 283.046 181.237 283.899 180.333C284.567 179.623 281.755 176.465 280.623 170.445C280.011 167.19 280.128 164.368 280.339 162.44" stroke="#FF8101" stroke-width="5" stroke-miterlimit="10"/>
<path d="M65 137C106 171.5 142 168.667 158 171.5" stroke="#FF8101" stroke-width="6"/>
<path d="M373 134C330 171.5 298 169.833 282 171.5" stroke="#FF8101" stroke-width="6"/>
<path d="M146.5 420.531V430.281H145.469C144.677 427.219 143.656 425.135 142.406 424.031C141.177 422.927 139.604 422.375 137.688 422.375C136.229 422.375 135.052 422.76 134.156 423.531C133.26 424.302 132.812 425.156 132.812 426.094C132.812 427.26 133.146 428.26 133.812 429.094C134.458 429.948 135.771 430.854 137.75 431.812L142.312 434.031C146.542 436.094 148.656 438.812 148.656 442.188C148.656 444.792 147.667 446.896 145.688 448.5C143.729 450.083 141.531 450.875 139.094 450.875C137.344 450.875 135.344 450.562 133.094 449.938C132.406 449.729 131.844 449.625 131.406 449.625C130.927 449.625 130.552 449.896 130.281 450.438H129.25V440.219H130.281C130.865 443.135 131.979 445.333 133.625 446.812C135.271 448.292 137.115 449.031 139.156 449.031C140.594 449.031 141.76 448.615 142.656 447.781C143.573 446.927 144.031 445.906 144.031 444.719C144.031 443.281 143.521 442.073 142.5 441.094C141.5 440.115 139.49 438.875 136.469 437.375C133.448 435.875 131.469 434.521 130.531 433.312C129.594 432.125 129.125 430.625 129.125 428.812C129.125 426.458 129.927 424.49 131.531 422.906C133.156 421.323 135.25 420.531 137.812 420.531C138.938 420.531 140.302 420.771 141.906 421.25C142.969 421.562 143.677 421.719 144.031 421.719C144.365 421.719 144.625 421.646 144.812 421.5C145 421.354 145.219 421.031 145.469 420.531H146.5ZM161.344 405.562V426.5C163.656 423.958 165.49 422.333 166.844 421.625C168.198 420.896 169.552 420.531 170.906 420.531C172.531 420.531 173.927 420.979 175.094 421.875C176.26 422.771 177.125 424.177 177.688 426.094C178.083 427.427 178.281 429.865 178.281 433.406V443.531C178.281 445.344 178.427 446.583 178.719 447.25C178.927 447.75 179.281 448.146 179.781 448.438C180.281 448.729 181.198 448.875 182.531 448.875V450H168.469V448.875H169.125C170.458 448.875 171.385 448.677 171.906 448.281C172.427 447.865 172.792 447.26 173 446.469C173.062 446.135 173.094 445.156 173.094 443.531V433.406C173.094 430.281 172.927 428.229 172.594 427.25C172.281 426.271 171.771 425.542 171.062 425.062C170.354 424.562 169.5 424.312 168.5 424.312C167.479 424.312 166.417 424.583 165.312 425.125C164.208 425.667 162.885 426.76 161.344 428.406V443.531C161.344 445.49 161.448 446.708 161.656 447.188C161.885 447.667 162.292 448.073 162.875 448.406C163.479 448.719 164.51 448.875 165.969 448.875V450H151.781V448.875C153.052 448.875 154.052 448.677 154.781 448.281C155.198 448.073 155.531 447.677 155.781 447.094C156.031 446.51 156.156 445.323 156.156 443.531V417.625C156.156 414.354 156.073 412.344 155.906 411.594C155.76 410.844 155.521 410.333 155.188 410.062C154.875 409.792 154.448 409.656 153.906 409.656C153.469 409.656 152.76 409.823 151.781 410.156L151.344 409.062L159.906 405.562H161.344ZM201.156 445.875C198.219 448.146 196.375 449.458 195.625 449.812C194.5 450.333 193.302 450.594 192.031 450.594C190.052 450.594 188.417 449.917 187.125 448.562C185.854 447.208 185.219 445.427 185.219 443.219C185.219 441.823 185.531 440.615 186.156 439.594C187.01 438.177 188.49 436.844 190.594 435.594C192.719 434.344 196.24 432.823 201.156 431.031V429.906C201.156 427.052 200.698 425.094 199.781 424.031C198.885 422.969 197.573 422.438 195.844 422.438C194.531 422.438 193.49 422.792 192.719 423.5C191.927 424.208 191.531 425.021 191.531 425.938L191.594 427.75C191.594 428.708 191.344 429.448 190.844 429.969C190.365 430.49 189.729 430.75 188.938 430.75C188.167 430.75 187.531 430.479 187.031 429.938C186.552 429.396 186.312 428.656 186.312 427.719C186.312 425.927 187.229 424.281 189.062 422.781C190.896 421.281 193.469 420.531 196.781 420.531C199.323 420.531 201.406 420.958 203.031 421.812C204.26 422.458 205.167 423.469 205.75 424.844C206.125 425.74 206.312 427.573 206.312 430.344V440.062C206.312 442.792 206.365 444.469 206.469 445.094C206.573 445.698 206.74 446.104 206.969 446.312C207.219 446.521 207.5 446.625 207.812 446.625C208.146 446.625 208.438 446.552 208.688 446.406C209.125 446.135 209.969 445.375 211.219 444.125V445.875C208.885 449 206.656 450.562 204.531 450.562C203.51 450.562 202.698 450.208 202.094 449.5C201.49 448.792 201.177 447.583 201.156 445.875ZM201.156 443.844V432.938C198.01 434.188 195.979 435.073 195.062 435.594C193.417 436.51 192.24 437.469 191.531 438.469C190.823 439.469 190.469 440.562 190.469 441.75C190.469 443.25 190.917 444.5 191.812 445.5C192.708 446.479 193.74 446.969 194.906 446.969C196.49 446.969 198.573 445.927 201.156 443.844ZM221.75 420.531V426.969C224.146 422.677 226.604 420.531 229.125 420.531C230.271 420.531 231.219 420.885 231.969 421.594C232.719 422.281 233.094 423.083 233.094 424C233.094 424.812 232.823 425.5 232.281 426.062C231.74 426.625 231.094 426.906 230.344 426.906C229.615 426.906 228.792 426.552 227.875 425.844C226.979 425.115 226.312 424.75 225.875 424.75C225.5 424.75 225.094 424.958 224.656 425.375C223.719 426.229 222.75 427.635 221.75 429.594V443.312C221.75 444.896 221.948 446.094 222.344 446.906C222.615 447.469 223.094 447.938 223.781 448.312C224.469 448.688 225.458 448.875 226.75 448.875V450H212.094V448.875C213.552 448.875 214.635 448.646 215.344 448.188C215.865 447.854 216.229 447.323 216.438 446.594C216.542 446.24 216.594 445.229 216.594 443.562V432.469C216.594 429.135 216.521 427.156 216.375 426.531C216.25 425.885 216 425.417 215.625 425.125C215.271 424.833 214.823 424.688 214.281 424.688C213.635 424.688 212.906 424.844 212.094 425.156L211.781 424.031L220.438 420.531H221.75ZM243.156 405.562V434.031L250.438 427.406C251.979 425.99 252.875 425.094 253.125 424.719C253.292 424.469 253.375 424.219 253.375 423.969C253.375 423.552 253.198 423.198 252.844 422.906C252.51 422.594 251.948 422.417 251.156 422.375V421.375H263.594V422.375C261.885 422.417 260.458 422.677 259.312 423.156C258.188 423.635 256.948 424.49 255.594 425.719L248.25 432.5L255.594 441.781C257.635 444.344 259.01 445.969 259.719 446.656C260.719 447.635 261.594 448.271 262.344 448.562C262.865 448.771 263.771 448.875 265.062 448.875V450H251.156V448.875C251.948 448.854 252.479 448.74 252.75 448.531C253.042 448.302 253.188 447.99 253.188 447.594C253.188 447.115 252.771 446.344 251.938 445.281L243.156 434.062V443.562C243.156 445.417 243.281 446.635 243.531 447.219C243.802 447.802 244.177 448.219 244.656 448.469C245.135 448.719 246.177 448.854 247.781 448.875V450H233.219V448.875C234.677 448.875 235.771 448.698 236.5 448.344C236.938 448.115 237.271 447.76 237.5 447.281C237.812 446.594 237.969 445.406 237.969 443.719V417.656C237.969 414.344 237.896 412.323 237.75 411.594C237.604 410.844 237.365 410.333 237.031 410.062C236.698 409.771 236.26 409.625 235.719 409.625C235.281 409.625 234.625 409.802 233.75 410.156L233.219 409.062L241.719 405.562H243.156ZM280.688 420.531C285.021 420.531 288.5 422.177 291.125 425.469C293.354 428.281 294.469 431.51 294.469 435.156C294.469 437.719 293.854 440.312 292.625 442.938C291.396 445.562 289.698 447.542 287.531 448.875C285.385 450.208 282.99 450.875 280.344 450.875C276.031 450.875 272.604 449.156 270.062 445.719C267.917 442.823 266.844 439.573 266.844 435.969C266.844 433.344 267.49 430.74 268.781 428.156C270.094 425.552 271.812 423.635 273.938 422.406C276.062 421.156 278.312 420.531 280.688 420.531ZM279.719 422.562C278.615 422.562 277.5 422.896 276.375 423.562C275.271 424.208 274.375 425.354 273.688 427C273 428.646 272.656 430.76 272.656 433.344C272.656 437.51 273.479 441.104 275.125 444.125C276.792 447.146 278.979 448.656 281.688 448.656C283.708 448.656 285.375 447.823 286.688 446.156C288 444.49 288.656 441.625 288.656 437.562C288.656 432.479 287.562 428.479 285.375 425.562C283.896 423.562 282.01 422.562 279.719 422.562Z" fill="black"/>
<path d="M23.1445 473.516L23.4375 479.727H22.6953C22.5521 478.633 22.3568 477.852 22.1094 477.383C21.7057 476.628 21.1654 476.074 20.4883 475.723C19.8242 475.358 18.9453 475.176 17.8516 475.176H14.1211V495.41C14.1211 497.038 14.2969 498.053 14.6484 498.457C15.1432 499.004 15.9049 499.277 16.9336 499.277H17.8516V500H6.62109V499.277H7.55859C8.67839 499.277 9.47266 498.939 9.94141 498.262C10.2279 497.845 10.3711 496.895 10.3711 495.41V475.176H7.1875C5.95052 475.176 5.07161 475.267 4.55078 475.449C3.8737 475.697 3.29427 476.172 2.8125 476.875C2.33073 477.578 2.04427 478.529 1.95312 479.727H1.21094L1.52344 473.516H23.1445ZM51.4844 500H44.4141L35.4492 487.617C34.7852 487.643 34.2448 487.656 33.8281 487.656C33.6589 487.656 33.4766 487.656 33.2812 487.656C33.0859 487.643 32.8841 487.63 32.6758 487.617V495.312C32.6758 496.979 32.8581 498.014 33.2227 498.418C33.7174 498.991 34.4596 499.277 35.4492 499.277H36.4844V500H25.1367V499.277H26.1328C27.2526 499.277 28.0534 498.913 28.5352 498.184C28.8086 497.78 28.9453 496.823 28.9453 495.312V478.203C28.9453 476.536 28.763 475.501 28.3984 475.098C27.8906 474.525 27.1354 474.238 26.1328 474.238H25.1367V473.516H34.7852C37.5977 473.516 39.668 473.724 40.9961 474.141C42.3372 474.544 43.4701 475.299 44.3945 476.406C45.332 477.5 45.8008 478.809 45.8008 480.332C45.8008 481.96 45.2669 483.372 44.1992 484.57C43.1445 485.768 41.5039 486.615 39.2773 487.109L44.7461 494.707C45.9961 496.452 47.0703 497.611 47.9688 498.184C48.8672 498.757 50.0391 499.121 51.4844 499.277V500ZM32.6758 486.387C32.9232 486.387 33.138 486.393 33.3203 486.406C33.5026 486.406 33.6523 486.406 33.7695 486.406C36.2956 486.406 38.1966 485.859 39.4727 484.766C40.7617 483.672 41.4062 482.279 41.4062 480.586C41.4062 478.932 40.8854 477.591 39.8438 476.562C38.8151 475.521 37.4479 475 35.7422 475C34.987 475 33.9648 475.124 32.6758 475.371V486.387ZM69.4336 491.133H59.1797L57.3828 495.312C56.9401 496.341 56.7188 497.109 56.7188 497.617C56.7188 498.021 56.9076 498.379 57.2852 498.691C57.6758 498.991 58.5091 499.186 59.7852 499.277V500H51.4453V499.277C52.5521 499.082 53.2682 498.828 53.5938 498.516C54.2578 497.891 54.9935 496.621 55.8008 494.707L65.1172 472.91H65.8008L75.0195 494.941C75.7617 496.712 76.4323 497.865 77.0312 498.398C77.6432 498.919 78.4896 499.212 79.5703 499.277V500H69.1211V499.277C70.1758 499.225 70.8854 499.049 71.25 498.75C71.6276 498.451 71.8164 498.086 71.8164 497.656C71.8164 497.083 71.556 496.178 71.0352 494.941L69.4336 491.133ZM68.8867 489.688L64.3945 478.984L59.7852 489.688H68.8867ZM103.281 473.516V474.238C102.344 474.408 101.634 474.707 101.152 475.137C100.462 475.775 99.8503 476.751 99.3164 478.066L90.0781 500.605H89.3555L79.4336 477.773C78.9258 476.602 78.5677 475.885 78.3594 475.625C78.0339 475.221 77.6302 474.909 77.1484 474.688C76.6797 474.453 76.0417 474.303 75.2344 474.238V473.516H86.0547V474.238C84.8307 474.355 84.0365 474.564 83.6719 474.863C83.3073 475.163 83.125 475.547 83.125 476.016C83.125 476.667 83.4245 477.682 84.0234 479.062L90.7617 494.59L97.0117 479.258C97.6237 477.747 97.9297 476.699 97.9297 476.113C97.9297 475.736 97.7409 475.378 97.3633 475.039C96.9857 474.688 96.3477 474.44 95.4492 474.297C95.3841 474.284 95.2734 474.264 95.1172 474.238V473.516H103.281ZM112.148 474.961V485.43H117.969C119.479 485.43 120.488 485.202 120.996 484.746C121.673 484.147 122.051 483.092 122.129 481.582H122.852V490.801H122.129C121.947 489.512 121.764 488.685 121.582 488.32C121.348 487.865 120.964 487.507 120.43 487.246C119.896 486.986 119.076 486.855 117.969 486.855H112.148V495.586C112.148 496.758 112.201 497.474 112.305 497.734C112.409 497.982 112.591 498.184 112.852 498.34C113.112 498.483 113.607 498.555 114.336 498.555H118.828C120.326 498.555 121.413 498.451 122.09 498.242C122.767 498.034 123.418 497.624 124.043 497.012C124.85 496.204 125.677 494.987 126.523 493.359H127.305L125.02 500H104.609V499.277H105.547C106.172 499.277 106.764 499.128 107.324 498.828C107.741 498.62 108.021 498.307 108.164 497.891C108.32 497.474 108.398 496.621 108.398 495.332V478.125C108.398 476.445 108.229 475.41 107.891 475.02C107.422 474.499 106.641 474.238 105.547 474.238H104.609V473.516H125.02L125.312 479.316H124.551C124.277 477.923 123.971 476.966 123.633 476.445C123.307 475.924 122.819 475.527 122.168 475.254C121.647 475.059 120.729 474.961 119.414 474.961H112.148ZM151.172 492.676L151.816 492.812L149.551 500H129.043V499.277H130.039C131.159 499.277 131.96 498.913 132.441 498.184C132.715 497.767 132.852 496.803 132.852 495.293V478.203C132.852 476.549 132.669 475.514 132.305 475.098C131.797 474.525 131.042 474.238 130.039 474.238H129.043V473.516H141.035V474.238C139.629 474.225 138.639 474.355 138.066 474.629C137.507 474.902 137.122 475.247 136.914 475.664C136.706 476.081 136.602 477.077 136.602 478.652V495.293C136.602 496.374 136.706 497.116 136.914 497.52C137.07 497.793 137.311 497.995 137.637 498.125C137.962 498.255 138.978 498.32 140.684 498.32H142.617C144.648 498.32 146.074 498.171 146.895 497.871C147.715 497.572 148.464 497.044 149.141 496.289C149.818 495.521 150.495 494.316 151.172 492.676ZM197.91 473.516V474.238C197.22 474.238 196.66 474.362 196.23 474.609C195.801 474.857 195.391 475.319 195 475.996C194.74 476.452 194.329 477.539 193.77 479.258L186.387 500.605H185.605L179.57 483.672L173.574 500.605H172.871L165 478.613C164.414 476.973 164.043 476.003 163.887 475.703C163.626 475.208 163.268 474.844 162.812 474.609C162.37 474.362 161.764 474.238 160.996 474.238V473.516H170.801V474.238H170.332C169.642 474.238 169.115 474.395 168.75 474.707C168.385 475.02 168.203 475.397 168.203 475.84C168.203 476.296 168.49 477.344 169.062 478.984L174.277 493.848L178.672 481.211L177.891 478.984L177.266 477.207C176.992 476.556 176.686 475.983 176.348 475.488C176.178 475.241 175.97 475.033 175.723 474.863C175.397 474.629 175.072 474.46 174.746 474.355C174.499 474.277 174.108 474.238 173.574 474.238V473.516H183.887V474.238H183.184C182.454 474.238 181.921 474.395 181.582 474.707C181.243 475.02 181.074 475.443 181.074 475.977C181.074 476.641 181.367 477.799 181.953 479.453L187.031 493.848L192.07 479.258C192.643 477.643 192.93 476.523 192.93 475.898C192.93 475.599 192.832 475.319 192.637 475.059C192.454 474.798 192.22 474.616 191.934 474.512C191.439 474.329 190.794 474.238 190 474.238V473.516H197.91ZM210.586 499.277V500H199.238V499.277H200.176C201.27 499.277 202.064 498.958 202.559 498.32C202.871 497.904 203.027 496.901 203.027 495.312V478.203C203.027 476.862 202.943 475.977 202.773 475.547C202.643 475.221 202.376 474.941 201.973 474.707C201.4 474.395 200.801 474.238 200.176 474.238H199.238V473.516H210.586V474.238H209.629C208.548 474.238 207.76 474.557 207.266 475.195C206.94 475.612 206.777 476.615 206.777 478.203V495.312C206.777 496.654 206.862 497.539 207.031 497.969C207.161 498.294 207.435 498.574 207.852 498.809C208.411 499.121 209.004 499.277 209.629 499.277H210.586ZM234.707 473.516L235 479.727H234.258C234.115 478.633 233.919 477.852 233.672 477.383C233.268 476.628 232.728 476.074 232.051 475.723C231.387 475.358 230.508 475.176 229.414 475.176H225.684V495.41C225.684 497.038 225.859 498.053 226.211 498.457C226.706 499.004 227.467 499.277 228.496 499.277H229.414V500H218.184V499.277H219.121C220.241 499.277 221.035 498.939 221.504 498.262C221.79 497.845 221.934 496.895 221.934 495.41V475.176H218.75C217.513 475.176 216.634 475.267 216.113 475.449C215.436 475.697 214.857 476.172 214.375 476.875C213.893 477.578 213.607 478.529 213.516 479.727H212.773L213.086 473.516H234.707ZM244.238 485.801H256.543V478.223C256.543 476.868 256.458 475.977 256.289 475.547C256.159 475.221 255.885 474.941 255.469 474.707C254.909 474.395 254.316 474.238 253.691 474.238H252.754V473.516H264.082V474.238H263.145C262.52 474.238 261.927 474.388 261.367 474.688C260.951 474.896 260.664 475.215 260.508 475.645C260.365 476.061 260.293 476.921 260.293 478.223V495.312C260.293 496.654 260.378 497.539 260.547 497.969C260.677 498.294 260.944 498.574 261.348 498.809C261.921 499.121 262.52 499.277 263.145 499.277H264.082V500H252.754V499.277H253.691C254.772 499.277 255.56 498.958 256.055 498.32C256.38 497.904 256.543 496.901 256.543 495.312V487.246H244.238V495.312C244.238 496.654 244.323 497.539 244.492 497.969C244.622 498.294 244.896 498.574 245.312 498.809C245.872 499.121 246.465 499.277 247.09 499.277H248.047V500H236.699V499.277H237.637C238.73 499.277 239.525 498.958 240.02 498.32C240.332 497.904 240.488 496.901 240.488 495.312V478.223C240.488 476.868 240.404 475.977 240.234 475.547C240.104 475.221 239.837 474.941 239.434 474.707C238.861 474.395 238.262 474.238 237.637 474.238H236.699V473.516H248.047V474.238H247.09C246.465 474.238 245.872 474.388 245.312 474.688C244.909 474.896 244.629 475.215 244.473 475.645C244.316 476.061 244.238 476.921 244.238 478.223V485.801ZM293.262 472.91V482.07H292.539C292.305 480.312 291.882 478.913 291.27 477.871C290.671 476.829 289.811 476.003 288.691 475.391C287.572 474.779 286.413 474.473 285.215 474.473C283.861 474.473 282.741 474.889 281.855 475.723C280.97 476.543 280.527 477.48 280.527 478.535C280.527 479.342 280.807 480.078 281.367 480.742C282.174 481.719 284.095 483.021 287.129 484.648C289.603 485.977 291.289 486.999 292.188 487.715C293.099 488.418 293.796 489.251 294.277 490.215C294.772 491.178 295.02 492.188 295.02 493.242C295.02 495.247 294.238 496.979 292.676 498.438C291.126 499.883 289.128 500.605 286.68 500.605C285.911 500.605 285.189 500.547 284.512 500.43C284.108 500.365 283.268 500.13 281.992 499.727C280.729 499.31 279.928 499.102 279.59 499.102C279.264 499.102 279.004 499.199 278.809 499.395C278.626 499.59 278.49 499.993 278.398 500.605H277.676V491.523H278.398C278.737 493.424 279.193 494.85 279.766 495.801C280.339 496.738 281.211 497.52 282.383 498.145C283.568 498.77 284.863 499.082 286.27 499.082C287.897 499.082 289.18 498.652 290.117 497.793C291.068 496.934 291.543 495.918 291.543 494.746C291.543 494.095 291.361 493.438 290.996 492.773C290.645 492.109 290.091 491.491 289.336 490.918C288.828 490.527 287.441 489.701 285.176 488.438C282.91 487.161 281.296 486.146 280.332 485.391C279.382 484.635 278.659 483.802 278.164 482.891C277.669 481.979 277.422 480.977 277.422 479.883C277.422 477.982 278.151 476.348 279.609 474.98C281.068 473.6 282.923 472.91 285.176 472.91C286.582 472.91 288.073 473.255 289.648 473.945C290.378 474.271 290.892 474.434 291.191 474.434C291.53 474.434 291.803 474.336 292.012 474.141C292.233 473.932 292.409 473.522 292.539 472.91H293.262ZM305.41 485.801H317.715V478.223C317.715 476.868 317.63 475.977 317.461 475.547C317.331 475.221 317.057 474.941 316.641 474.707C316.081 474.395 315.488 474.238 314.863 474.238H313.926V473.516H325.254V474.238H324.316C323.691 474.238 323.099 474.388 322.539 474.688C322.122 474.896 321.836 475.215 321.68 475.645C321.536 476.061 321.465 476.921 321.465 478.223V495.312C321.465 496.654 321.549 497.539 321.719 497.969C321.849 498.294 322.116 498.574 322.52 498.809C323.092 499.121 323.691 499.277 324.316 499.277H325.254V500H313.926V499.277H314.863C315.944 499.277 316.732 498.958 317.227 498.32C317.552 497.904 317.715 496.901 317.715 495.312V487.246H305.41V495.312C305.41 496.654 305.495 497.539 305.664 497.969C305.794 498.294 306.068 498.574 306.484 498.809C307.044 499.121 307.637 499.277 308.262 499.277H309.219V500H297.871V499.277H298.809C299.902 499.277 300.697 498.958 301.191 498.32C301.504 497.904 301.66 496.901 301.66 495.312V478.223C301.66 476.868 301.576 475.977 301.406 475.547C301.276 475.221 301.009 474.941 300.605 474.707C300.033 474.395 299.434 474.238 298.809 474.238H297.871V473.516H309.219V474.238H308.262C307.637 474.238 307.044 474.388 306.484 474.688C306.081 474.896 305.801 475.215 305.645 475.645C305.488 476.061 305.41 476.921 305.41 478.223V485.801ZM344.395 491.133H334.141L332.344 495.312C331.901 496.341 331.68 497.109 331.68 497.617C331.68 498.021 331.868 498.379 332.246 498.691C332.637 498.991 333.47 499.186 334.746 499.277V500H326.406V499.277C327.513 499.082 328.229 498.828 328.555 498.516C329.219 497.891 329.954 496.621 330.762 494.707L340.078 472.91H340.762L349.98 494.941C350.723 496.712 351.393 497.865 351.992 498.398C352.604 498.919 353.451 499.212 354.531 499.277V500H344.082V499.277C345.137 499.225 345.846 499.049 346.211 498.75C346.589 498.451 346.777 498.086 346.777 497.656C346.777 497.083 346.517 496.178 345.996 494.941L344.395 491.133ZM343.848 489.688L339.355 478.984L334.746 489.688H343.848ZM382.031 500H374.961L365.996 487.617C365.332 487.643 364.792 487.656 364.375 487.656C364.206 487.656 364.023 487.656 363.828 487.656C363.633 487.643 363.431 487.63 363.223 487.617V495.312C363.223 496.979 363.405 498.014 363.77 498.418C364.264 498.991 365.007 499.277 365.996 499.277H367.031V500H355.684V499.277H356.68C357.799 499.277 358.6 498.913 359.082 498.184C359.355 497.78 359.492 496.823 359.492 495.312V478.203C359.492 476.536 359.31 475.501 358.945 475.098C358.438 474.525 357.682 474.238 356.68 474.238H355.684V473.516H365.332C368.145 473.516 370.215 473.724 371.543 474.141C372.884 474.544 374.017 475.299 374.941 476.406C375.879 477.5 376.348 478.809 376.348 480.332C376.348 481.96 375.814 483.372 374.746 484.57C373.691 485.768 372.051 486.615 369.824 487.109L375.293 494.707C376.543 496.452 377.617 497.611 378.516 498.184C379.414 498.757 380.586 499.121 382.031 499.277V500ZM363.223 486.387C363.47 486.387 363.685 486.393 363.867 486.406C364.049 486.406 364.199 486.406 364.316 486.406C366.842 486.406 368.743 485.859 370.02 484.766C371.309 483.672 371.953 482.279 371.953 480.586C371.953 478.932 371.432 477.591 370.391 476.562C369.362 475.521 367.995 475 366.289 475C365.534 475 364.512 475.124 363.223 475.371V486.387ZM393.633 485.312L403.398 495.02C405 496.621 406.367 497.715 407.5 498.301C408.633 498.874 409.766 499.199 410.898 499.277V500H398.301V499.277C399.056 499.277 399.596 499.154 399.922 498.906C400.26 498.646 400.43 498.359 400.43 498.047C400.43 497.734 400.365 497.454 400.234 497.207C400.117 496.96 399.714 496.497 399.023 495.82L389.883 486.777V495.312C389.883 496.654 389.967 497.539 390.137 497.969C390.267 498.294 390.54 498.574 390.957 498.809C391.517 499.121 392.109 499.277 392.734 499.277H393.633V500H382.344V499.277H383.281C384.375 499.277 385.169 498.958 385.664 498.32C385.977 497.904 386.133 496.901 386.133 495.312V478.203C386.133 476.862 386.048 475.97 385.879 475.527C385.749 475.215 385.482 474.941 385.078 474.707C384.505 474.395 383.906 474.238 383.281 474.238H382.344V473.516H393.633V474.238H392.734C392.122 474.238 391.53 474.388 390.957 474.688C390.553 474.896 390.273 475.208 390.117 475.625C389.961 476.042 389.883 476.901 389.883 478.203V486.309C390.143 486.061 391.035 485.234 392.559 483.828C396.426 480.286 398.763 477.923 399.57 476.738C399.922 476.217 400.098 475.762 400.098 475.371C400.098 475.072 399.961 474.811 399.688 474.59C399.414 474.355 398.952 474.238 398.301 474.238H397.695V473.516H407.422V474.238C406.849 474.251 406.328 474.329 405.859 474.473C405.391 474.616 404.818 474.896 404.141 475.312C403.464 475.716 402.63 476.374 401.641 477.285C401.354 477.546 400.033 478.88 397.676 481.289L393.633 485.312ZM425.215 472.91C428.652 472.91 431.628 474.219 434.141 476.836C436.667 479.44 437.93 482.695 437.93 486.602C437.93 490.625 436.66 493.965 434.121 496.621C431.582 499.277 428.509 500.605 424.902 500.605C421.257 500.605 418.19 499.31 415.703 496.719C413.229 494.128 411.992 490.775 411.992 486.66C411.992 482.454 413.424 479.023 416.289 476.367C418.776 474.062 421.751 472.91 425.215 472.91ZM424.844 474.336C422.474 474.336 420.573 475.215 419.141 476.973C417.357 479.16 416.465 482.363 416.465 486.582C416.465 490.905 417.389 494.232 419.238 496.562C420.658 498.333 422.533 499.219 424.863 499.219C427.35 499.219 429.401 498.249 431.016 496.309C432.643 494.368 433.457 491.309 433.457 487.129C433.457 482.598 432.565 479.219 430.781 476.992C429.349 475.221 427.37 474.336 424.844 474.336Z" fill="#FF8101"/>
</svg>
